<?xml version="1.0" encoding="UTF-8"?>
<svg xmlns="http://www.w3.org/2000/svg" xmlns:xlink="http://www.w3.org/1999/xlink" width="20pt" height="20pt" viewBox="0 0 20 20" version="1.1">
<g id="surface1">
<path style=" stroke:none;fill-rule:nonzero;fill:rgb(0%,0%,0%);fill-opacity:1;" d="M 13.839844 11.867188 C 16.238281 8.476562 15.4375 3.785156 12.046875 1.382812 C 8.65625 -1.015625 3.960938 -0.214844 1.5625 3.175781 C -0.839844 6.566406 -0.0351562 11.261719 3.355469 13.660156 C 5.773438 15.375 8.972656 15.503906 11.527344 14 L 17.070312 19.511719 C 17.671875 20.140625 18.667969 20.164062 19.296875 19.566406 C 19.925781 18.96875 19.953125 17.972656 19.355469 17.34375 C 19.335938 17.320312 19.316406 17.304688 19.296875 17.285156 Z M 7.695312 12.382812 C 5.015625 12.382812 2.84375 10.210938 2.84375 7.535156 C 2.84375 4.855469 5.011719 2.683594 7.691406 2.679688 C 10.367188 2.679688 12.539062 4.847656 12.542969 7.523438 C 12.546875 10.203125 10.378906 12.378906 7.699219 12.382812 C 7.699219 12.382812 7.699219 12.382812 7.695312 12.382812 Z M 7.695312 12.382812 "/>
</g>
</svg>
